<?xml version="1.0" encoding="UTF-8" standalone="no"?>
<!-- Created with Inkscape (http://www.inkscape.org/) -->

<svg
   width="16.01in"
   height="8.25in"
   viewBox="0 0 406.65401 209.55"
   version="1.1"
   id="svg5"
   inkscape:version="1.1 (c68e22c387, 2021-05-23)"
   sodipodi:docname="firma en blanco.svg"
   xmlns:inkscape="http://www.inkscape.org/namespaces/inkscape"
   xmlns:sodipodi="http://sodipodi.sourceforge.net/DTD/sodipodi-0.dtd"
   xmlns="http://www.w3.org/2000/svg"
   xmlns:svg="http://www.w3.org/2000/svg">
  <sodipodi:namedview
     id="namedview7"
     pagecolor="#ff8b8f"
     bordercolor="#666666"
     borderopacity="1.0"
     inkscape:pageshadow="2"
     inkscape:pageopacity="0"
     inkscape:pagecheckerboard="0"
     inkscape:document-units="mm"
     showgrid="false"
     inkscape:zoom="0.68284534"
     inkscape:cx="763.71613"
     inkscape:cy="428.35468"
     inkscape:window-width="1920"
     inkscape:window-height="1001"
     inkscape:window-x="-9"
     inkscape:window-y="-9"
     inkscape:window-maximized="1"
     inkscape:current-layer="layer1"
     inkscape:snap-page="false"
     width="11.5in"
     units="in"
     scale-x="1.1" />
  <defs
     id="defs2" />
  <g
     inkscape:label="Capa 1"
     inkscape:groupmode="layer"
     id="layer1">
    <path
       style="fill:none;stroke:#ffffff;stroke-width:2.5;stroke-linecap:round;stroke-linejoin:miter;stroke-miterlimit:4;stroke-dasharray:none;stroke-opacity:1"
       d="M 89.080489,55.828213 C 90.03949,56.108343 6.0477514,38.336719 32.127136,72.992028"
       id="path228"
       sodipodi:nodetypes="cc" />
    <path
       style="fill:none;stroke:#ffffff;stroke-width:2.5;stroke-linecap:round;stroke-linejoin:miter;stroke-miterlimit:4;stroke-dasharray:none;stroke-opacity:1"
       d="m 89.080489,55.828213 c 0,0 8.589601,84.172077 -21.945142,93.156557 -6.206173,1.82609 -12.913593,-0.0709 -14.925732,-5.16445 -3.117164,-7.89087 3.877242,-14.85528 11.340422,-16.16256 13.640337,-2.3893 42.023173,8.20939 56.193303,12.75172 42.43803,13.6038 149.29748,28.5752 241.86172,-12.44487"
       id="path230"
       sodipodi:nodetypes="cssssc" />
    <path
       style="fill:none;stroke:#ffffff;stroke-width:2.5;stroke-linecap:round;stroke-linejoin:round;stroke-miterlimit:4;stroke-dasharray:none;stroke-opacity:1"
       d="m 113.74936,127.51667 c 26.20498,-12.39172 32.93481,-27.869833 20.66126,-29.224309 -17.86154,-0.23047 -10.70266,27.016809 5.62882,27.214309 12.44517,-0.17961 18.41651,-9.86175 19.79728,-16.29794 2.61507,-12.189657 -3.01501,-12.886047 -3.01501,-12.886047 -5.65661,-2.01286 -13.46762,4.051207 -11.0314,9.938737 2.94731,7.12268 33.30224,-13.291497 29.5875,0.98243 -1.99551,7.66779 -13.7108,26.00323 0.1569,20.53379"
       id="path2336"
       sodipodi:nodetypes="cccscssc" />
    <path
       style="fill:none;stroke:#ffffff;stroke-width:2.5;stroke-linecap:round;stroke-linejoin:round;stroke-miterlimit:4;stroke-dasharray:none;stroke-opacity:1"
       d="m 115.11498,80.632649 c 0,0 9.18185,-0.200571 7.8975,6.022184 -2.49285,12.077957 -23.247582,-1.476951 -53.207546,-1.270505"
       id="path6958"
       sodipodi:nodetypes="csc" />
    <path
       style="fill:none;stroke:#ffffff;stroke-width:2.5;stroke-linecap:round;stroke-linejoin:round;stroke-miterlimit:4;stroke-dasharray:none;stroke-dashoffset:0;stroke-opacity:1;paint-order:normal"
       d="m 342.98401,125.62961 c -15.13817,12.05818 -2.92643,-21.01258 -2.92643,-21.01258 0,0 -5.77764,26.69857 -12.84626,25.14988 -8.53317,-1.86956 0.42386,-25.68012 0.42386,-25.68012 0,0 -3.38884,18.73886 -10.57386,23.37861 -2.31142,1.49261 -6.36092,2.00234 -8.25438,0.006 -4.63806,-4.89006 3.31517,-36.009748 1.08347,-20.19021 -1.87213,17.71909 -15.73036,27.27281 -23.4184,20.35446 -6.82488,-6.14161 15.78425,-22.57307 15.78425,-22.57307 0,0 -16.6347,21.66169 -27.3,24.19378 -2.69001,0.63864 -6.37931,0.17942 -7.25111,-3.66527 -2.54476,-11.22254 24.79317,-62.74739 24.79317,-62.74739 0,0 -16.17214,31.5012 -24.25148,31.228255 C 260.16751,93.79901 267.37,67.879276 267.37,67.879276 c 5.34957,-10.152208 -23.22226,62.473594 -41.23166,61.598134 -10.70754,-0.52051 -4.28749,-20.54458 6.31368,-22.84854"
       id="path12843"
       sodipodi:nodetypes="ccscaacacssczcsc" />
    <ellipse
       style="fill:#ffffff;stroke-width:2.49998;stroke-linecap:round;stroke-linejoin:round;stroke-miterlimit:4;stroke-dasharray:none;stroke:#ffffff;stroke-opacity:1;fill-opacity:1"
       id="path37706"
       ry="2.2150099"
       rx="2.446955"
       cy="117.12593"
       cx="199.78749" />
    <path
       style="fill:none;stroke:#ffffff;stroke-width:2.5;stroke-linecap:round;stroke-linejoin:round;stroke-miterlimit:4;stroke-dasharray:none;stroke-opacity:1"
       d="m 69.804934,85.384328 c 0,0 -13.623903,-0.265426 -16.057385,4.639268 -2.73951,5.521494 6.838052,7.00289 6.838052,7.00289"
       id="path7870"
       sodipodi:nodetypes="csc" />
    <path
       style="fill:none;stroke:#ffffff;stroke-width:2.5;stroke-linecap:round;stroke-linejoin:round;stroke-miterlimit:4;stroke-dasharray:none;stroke-opacity:1"
       d="m 89.080487,55.828212 c 0,0 48.927073,8.462764 57.100893,7.361424 8.17382,-1.10134 7.02105,-10.836423 4.33292,-12.798607 -4.11774,-3.00572 -12.95892,-0.228394 -12.95892,-0.228394"
       id="path10753"
       sodipodi:nodetypes="czsc" />
  </g>
</svg>
